<svg xmlns="http://www.w3.org/2000/svg"  viewBox="0 0 80 80" width="80px" height="80px"><path fill="#ffb5d2" d="M40,77.5C19.3,77.5,2.5,60.7,2.5,40S19.3,2.5,40,2.5S77.5,19.3,77.5,40S60.7,77.5,40,77.5z"/><path fill="#ea4c89" d="M40,3c20.4,0,37,16.6,37,37S60.4,77,40,77S3,60.4,3,40S19.6,3,40,3 M40,2C19,2,2,19,2,40 s17,38,38,38s38-17,38-38S61,2,40,2L40,2z"/><path fill="#ea4c89" d="M56.2,73.9c-0.1-0.4-6.3-42.3-31.1-68.3l0.7-0.7c25,26.2,31.3,68.4,31.4,68.9L56.2,73.9z"/><path fill="#ea4c89" d="M9.6 36.4c-4.3 0-6.9-.2-7.1-.2l.1-1c.5 0 48.3 3.9 63.7-22l.9.5C55 34 23.7 36.4 9.6 36.4zM16.1 68.5l-.9-.4c.2-.4 18-39.9 62.7-24.7l-.3.9C33.6 29.5 16.2 68.1 16.1 68.5z"/></svg>